<svg width="30" height="30" viewBox="0 0 30 30" fill="none" xmlns="http://www.w3.org/2000/svg">
<path fill-rule="evenodd" clip-rule="evenodd" d="M4.04416 2.38373C3.44365 2.38373 3.00425 2.94988 3.15326 3.53161L5.95136 14.455C6.05559 14.8618 6.42224 15.1464 6.84226 15.1464H13.2714C13.4237 15.1464 13.5472 15.2699 13.5472 15.4222V26.6948C13.5472 27.5141 14.5378 27.9244 15.1172 27.3451L26.5165 15.9457C26.7465 15.7157 26.8757 15.4038 26.8757 15.0786V4.41191C26.8757 3.60216 25.9048 3.18763 25.32 3.74767L14.064 14.5258C13.9117 14.6717 13.6585 14.5994 13.6062 14.395L10.7065 3.07518C10.6023 2.6683 10.2356 2.38373 9.81563 2.38373H4.04416Z" fill="#4F46E5"/>
</svg>
